<?xml version="1.0" encoding="UTF-8"?><svg id="Layer_1" xmlns="http://www.w3.org/2000/svg" viewBox="0 0 3219 1217.03"><defs><style>.cls-1{fill:#fff;}</style></defs><path class="cls-1" d="m2142.82,721.31c-1.09,0-2.53-.46-3.23.06-3.22,2.46-6.29,5.12-9.31,7.81-12.13,10.85-24.6,21.26-37.76,30.86-9.39,6.86-19.09,13.16-29.34,18.7-6.62,3.58-23.85,15.33-50.01,16.06-37.49,1.06-64.83-14.54-83.24-46.46-8.04-13.97-10.33-29.3-8.03-45.48,2.56-17.97,7.26-35.24,13.98-52.04,2.14-5.39,4.34-10.76,6.32-16.21.28-.78-.52-2.01-1.03-2.92-.12-.21-1.18-.13-1.62.12-4.91,3.04-10.69,5.32-14.46,9.42-5.21,5.66-11.92,8.97-17.67,13.7-5.79,4.78-12.05,9.03-18.28,13.25-28.84,19.55-57.79,38.9-87.93,56.41-1.5.88-3.04,1.71-4.48,2.68-24.55,16.6-50.41,31.02-76.01,45.84-18.1,10.48-35.5,22.08-52.18,34.72-6.51,4.94-13.4,9.19-20.87,12.47-17.56,7.73-33.82,17.89-50.69,26.92-1.53.82-2.83,2.13-4.42,2.76-20.5,8.02-40.47,17.53-61.98,22.71-9,2.17-18.09,4.4-27.26,5.3-6.81.66-13.85-.6-20.77-1.32-9.9-1.03-19.27-3.89-28.1-8.62-24.58-13.21-44.3-31.62-59.12-55.29-4.97-7.95-8.52-16.54-10.23-25.77-3.1-16.69-4.15-33.25.27-50.07,3.56-13.52,7.04-26.99,12.79-39.75,12.16-27.01,24.46-53.96,36.73-80.92.72-1.59,1.45-3.17,2.32-4.69,11.2-19.04,20.05-39.3,30.24-58.84,11.27-21.62,23.83-42.58,36.14-63.65,18.76-32.08,37.85-64,56.68-96.06,4.72-8.01,9.03-16.24,13.55-24.37,2.25-4.06,4.22-8.32,6.92-12.08,7.49-10.41,13.55-21.65,20.06-32.65,9.46-15.99,19.33-31.75,28.81-47.74,7.7-13,14.97-26.23,22.61-39.26,4.12-7.01,8.44-13.89,12.98-20.65,29.22-43.58,53.45-89.8,71.98-138.95,7.8-20.69,14.01-41.85,18.55-63.5.48-2.28.78-4.6,1.35-6.84.93-3.74,5.27-7.26,9.01-6.96,16.8,1.35,31.65,6.99,42.88,20.18,5.45,6.42,8.04,14.07,8.34,22.46.13,3.47-.3,6.98-.21,10.45.05,1.65.24,3.67,1.18,4.87,4.46,5.67,3.8,11.87,2.56,18.28-1.59,8.1-5.26,15.33-9.15,22.47-1.68,3.07-3.8,5.94-3.61,9.64.19,3.91-1.56,6.54-4.66,8.7-2.96,2.07-4.7,5.12-5.51,8.61-3.22,13.7-9.24,26.31-15.26,38.87-12.04,25.17-24.93,49.89-39.39,73.77-2.99,4.94-5.05,10.47-8.02,15.42-2.96,4.94-6.84,9.33-9.79,14.28-4.46,7.47-8.46,15.24-12.68,22.86-16.63,29.97-34.38,59.3-52.85,88.18-11.59,18.12-21.98,36.94-33.06,55.35-9.87,16.39-20.15,32.52-28.42,49.84-2.49,5.19-5.88,10.03-9.22,14.78-12.7,18.1-23.07,37.52-32.71,57.37-.51,1.05-.99,2.13-1.68,3.05-9.9,13.73-16.51,29.31-24.75,43.99-15.65,27.86-29.93,56.44-44.6,84.83-1.87,3.61-3.46,7.37-5.4,10.93-15.72,28.81-24.57,60.13-33.27,91.49-.6,2.13-.43,4.64.02,6.84.97,4.6,5.26,7.99,10.09,8.17,8.73.33,17.34-.61,25.9-2.49,15.92-3.47,31.26-8.68,46.4-14.63,21.62-8.52,42.43-18.77,62.93-29.66,24.61-13.09,48.43-27.55,72.19-42.1,11.38-6.96,22.95-13.62,34.38-20.51,9.94-6,19.87-12.02,29.63-18.3,8.31-5.34,16.78-10.3,25.96-14.09,5.33-2.2,10.41-5.09,15.38-8.06,7.47-4.48,14.69-9.34,22.08-13.94,18.71-11.63,36.73-24.46,56.74-33.93,4.18-1.96,7.99-4.73,11.87-7.28,35.51-23.27,75.28-38.96,110.94-61.85,46.62-29.93,54.77-48.13,59.09-55.01,3.17-5.05,7.85-6.66,13.32-6.62,10.79.1,20.62,3.23,28.9,10.32,9.49,8.08,15.81,18.48,20.69,29.78,1.42,3.29,1.14,6.9-.46,10.17-1,2.08-2.29,4.04-3.61,5.96-4.63,6.71-20.29,34.7-24.91,41.37-1.96,2.83-3.11,6.23-4.88,9.22-2.65,4.49-5.39,8.92-8.31,13.24-4.87,7.22-10.32,14.07-14.78,21.51-16.47,27.46-30.38,56.2-41.77,86.15-3.1,8.11-5.48,16.53-7.94,24.87-.97,3.32-1.45,6.89-.03,10.26.36.87,1.45,2.05,2.4,1.98,21.18-1.53,91.21-61.47,109.01-77.31,24.3-21.65,76.3-50.39,102.38-118.82,6.84-17.94,14.57-40.45,29.15-80.89,5.93-16.44,12.91-32.32,20.56-48,8.13-16.71,16-33.55,21.62-51.34,1.71-5.43,5.25-8.13,10.23-7.58,17.86,2.01,33.49,8.86,45.99,22.08,1.18,1.24,2.07,2.8,2.96,4.3,2.52,4.24,3.32,8.32.39,13-9,14.34-14.94,30.15-21.11,45.83-4.04,10.27-7.88,20.63-12.28,30.74-20.18,46.38-38,93.62-52.13,142.23-1.6,5.57-3.23,11.15-4.6,16.8-.37,1.56.1,3.35.36,5.02.19,1.36,3.17,2.77,4.16,2.05,1.39-1,3.05-1.83,4.04-3.14,6.56-8.88,13.41-17.56,19.34-26.86,17.53-27.5,37.46-53.18,58.33-78.17,36.91-44.17,75.32-86.96,116.32-127.36,12.4-12.23,25.2-24.09,38.34-35.53,9.18-7.98,19.06-15.18,28.97-22.26,7.1-5.09,14.85-9.04,23.9-9.67,2.29-.16,4.55-.96,6.74-1.69,10.42-3.52,20.65-1.51,30.84,1.09,1.63.4,3.43,1.15,4.6,2.31,3.44,3.34,7.58,5.24,11.92,6.96,5.24,2.1,8.13,6.36,9.79,11.56.75,2.37.51,4.75-1.24,6.48-2.04,2.02-4.28,3.94-6.74,5.4-5.97,3.58-12.05,6.99-18.21,10.24-11.86,6.23-22.89,13.7-33.33,22.08-13.15,10.57-25.75,21.77-37.5,33.84-18.25,18.71-36.47,37.46-54.17,56.7-18.86,20.53-37.68,41.13-55.1,62.94-2.52,3.17-5.21,6.26-7.29,9.7-8.19,13.46-18.16,25.54-28.28,37.55-6.71,7.99-13.09,16.27-19.55,24.48-1.06,1.35-2.19,2.86-2.62,4.48-1.32,4.67-4.4,8.12-7.43,11.63-18.56,21.66-34.97,44.9-50.23,68.97-24.9,39.35-46.98,80.19-65.35,123.01-4.15,9.64-8.98,18.89-15.27,27.32-2.75,3.71-5.84,7.22-9.1,10.51-4.91,4.97-11.06,6.12-17.7,4.63-6.98-1.57-13.06-5.06-17.86-10.29-7.08-7.7-14.3-15.2-22.49-21.75-1.62-1.3-2.64-3.83-3.11-5.97-1.81-8.04-1.3-16.17-.01-24.25,4.28-26.98,8.82-53.9,15.21-80.47,1.06-4.46,2.7-8.97.96-13.67.43-.04.91-.02,1.27-.19.13-.06.05-.96-.01-.97-1.17-.21-1.47.33-.87,1.51"/><path class="cls-1" d="m2132.77,292.23c21.04-4.9,36.55-10.18,52.94,7.28,5.49,5.85,10.21,11.96,10.18,20.14-.03,5.78-1.72,11.81-1.77,17.76-.03,3.79.88,5.73-1.33,9.16-9.48,14.76-38.69,3.19-49.5-3.91-7.76-5.09-8.77-12.2-11.72-20.38-3.91-10.84-3.88-19.22,1.2-30.05"/><path class="cls-1" d="m2387.47,689.15c.04-12.89,1.29-24.4,4.13-35.74,2.41-9.63,6-18.76,10.81-27.46,22.91-41.53,52.72-77.73,85.95-111.22,13.1-13.21,27.37-25.11,42.59-35.81,13.82-9.69,28.33-18.12,44.09-24.28,14.69-5.75,29.75-9.75,45.63-9.75,25.29.03,46.1,10.24,62.85,28.78,9.27,10.27,13.47,22.86,13.94,36.71.27,8.37-1.45,16.35-6.23,23.16-6.98,9.93-12.23,20.99-20.57,30.06-5.47,5.94-9.39,13.29-14.64,19.46-25.87,30.38-56.37,55.11-91.55,73.95-12.82,6.86-26.22,12.19-40.51,15.35-13.41,2.96-26.46,1.29-39.42-2.2-5.58-1.5-11.05-3.46-16.68-4.81-2.92-.7-5.7.33-7.59,2.99-.33.46-.78.88-1.03,1.41-6.95,14.73-13.07,29.73-13.09,46.43,0,3.47.27,6.98.78,10.41,1.03,7.19,4.01,13.29,10.35,17.38,1.45.94,2.77,2.11,4.15,3.17,5.84,4.55,12.59,6.06,19.7,4.76,6.81-1.26,13.82-2.49,20.14-5.17,18.65-7.94,37.31-15.96,53.85-28.01,4.21-3.08,8.59-5.93,12.88-8.91,28.15-19.6,54.45-41.5,80.77-63.42,18.73-15.59,37.47-31.19,56.65-46.2,12.32-9.66,25.2-18.62,38.27-27.25,8.19-5.42,17.07-9.84,25.83-14.34,7.26-3.74,15.14-5.94,23.22-6.93,2.72-.33,5.69.48,8.43,1.24,2.32.63,3.77,2.52,4.46,4.91,1.15,4.06.87,8.1-.37,12.02-1.05,3.32-2.29,6.6-3.79,9.73-2.99,6.29-6.32,12.41-9.34,18.68-5.37,11.21-13,20.47-22.83,28.09-8.73,6.75-17.05,14-25.6,20.96-21.2,17.26-41.58,35.35-58.61,56.89-3.28,4.16-7.35,7.4-11.62,10.42-11.84,8.38-23.67,16.77-35.54,25.11-6.15,4.34-12.46,8.41-17.71,13.98-5.24,5.58-12.13,8.98-19.1,11.86-10.75,4.42-20.89,9.91-30.84,15.87-5.94,3.55-12.34,6.42-18.74,9.09-10.73,4.46-21.96,7.58-33.37,9.6-33.01,5.82-63.54.27-89.86-21.74-14.97-12.52-25.98-28.06-33.04-46.29-5.49-14.21-9.73-28.64-7.77-42.94m104.32-64.84c3.08-.66,6.57-.94,9.69-2.17,11.41-4.48,21.81-10.87,31.85-17.83,29.24-20.3,55.74-43.72,78.84-70.86,6-7.07,11.24-14.78,16.71-22.28,1.35-1.86,2.38-4,3.22-6.15.34-.87.15-2.38-.42-3.08-.6-.73-1.96-1.17-2.98-1.15-4.84.12-8.85,2.71-12.89,4.88-11.8,6.33-22.68,14.1-33.22,22.32-23.85,18.61-46.29,38.82-67.07,60.82-7.97,8.43-15.35,17.44-22.82,26.34-1.42,1.68-2.23,3.97-2.92,6.11-.18.6,1.05,1.66,2.02,3.07"/><path class="cls-1" d="m3208.28,153.36c3.04,5.49,5.88,10.53,8.64,15.6,3.04,5.61,2.62,11.23-.42,16.63-1.98,3.53-4.21,6.96-6.54,10.27-5.36,7.58-10.79,15.11-16.33,22.58-15.24,20.51-29.36,41.73-41.88,64.08-7.94,14.16-17.41,27.44-26.16,41.14-4.37,6.83-8.8,13.64-13.03,20.57-5.75,9.42-11.11,19.06-17.04,28.36-6.54,10.3-13.13,20.53-18.39,31.58-1.98,4.16-4.51,8.11-7.19,11.89-25.65,36.16-46.28,75.08-63.3,115.94-9.39,22.52-19.87,44.51-30.45,66.46-10.33,21.42-21.29,42.56-29.51,64.98-3.52,9.61-9.9,16.98-19.7,20.89-4.3,1.72-8.43,3.88-12.79,5.43-7.62,2.71-15.65-.46-19.22-7.44-2.11-4.13-3.98-8.38-6.05-12.55-.78-1.53-1.42-3.68-2.72-4.3-8.59-4.16-6.54-10.9-5.14-17.95,3.07-15.41,7.61-30.39,12.62-45.24,7.62-22.56,16.51-44.63,25.95-66.49,17.04-39.47,35.86-78.06,56.35-115.84,5.81-10.72,11.68-21.41,18.89-31.29,1.71-2.34,3.68-4.7,4.58-7.37,4.36-12.86,13.7-22.74,20.06-34.39,6.68-12.22,13.79-24.21,20.89-36.2,6.81-11.48,13.73-22.91,20.8-34.24,25.84-41.4,53.51-81.52,84.23-119.5,2.9-3.61,5.84-7.23,9.1-10.51,3.86-3.88,8.76-5.6,14.28-5.11,2.31.19,4.69.28,6.86,1,10.97,3.59,21.89,7.38,32.59,11.02"/><path class="cls-1" d="m2832.67,794.63c2.92.43,6.99.69,10.88,1.69,7.38,1.87,14.7,2.77,22.32,1.68,7.23-1.03,13.67,1.5,19.58,5.52,7.79,5.3,13.95,12.1,18.39,20.45,2.93,5.54,3.23,10.87-.42,16.36-4.21,6.32-8.85,12.17-14.93,16.78-2.87,2.16-5.99,3.61-9.64,3.07-8.01-1.18-16.12-1.96-23.95-3.86-13.88-3.4-25.5-10.73-34.39-22.11-5.03-6.42-9-13.44-12.29-20.92-3.26-7.37.61-13.92,7.94-16.32,2.72-.88,5.63-1.29,8.47-1.72,2.29-.33,4.61-.37,8.04-.63"/><rect class="cls-1" x="290.84" y="474.01" width="69.42" height="255.07"/><path class="cls-1" d="m892.55,543.99c0-1.39-25.35-14-56.95-14-42.71,0-73.03,29.78-73.03,69.98s29.39,70.02,73.38,70.02c31.07,0,56.61-12.35,56.61-13.92v70.43c-11.57,2.34-32.22,9.34-61.56,9.34-74.32,0-140.23-51.35-140.23-135.87,0-78.36,60.04-135.81,140.55-135.81,30.99,0,49.66,7.56,61.23,9.4v70.43Z"/><path class="cls-1" d="m198.27,543.99c0-1.39-22.97-14-54.57-14-42.79,0-71.92,29.78-71.92,69.98s27.67,70.02,71.7,70.02c31.07,0,54.8-12.35,54.8-13.92v70.43c-11.57,2.34-29.78,9.34-59.3,9.34C64.69,735.84.01,684.49.01,599.97.01,521.61,58.33,464.16,138.74,464.16c31.08,0,59.53,7.56,59.53,9.4v70.43Z"/><path class="cls-1" d="m1236.06,599.96c0,75.07-57.85,135.87-138.37,135.87s-138.29-60.8-138.29-135.87,57.78-135.79,138.29-135.79,138.37,60.86,138.37,135.79m-138.37-68.99c-39.2,0-68.3,30.9-68.3,68.99s29.11,69.05,68.3,69.05,68.35-30.87,68.35-69.05-29.19-68.99-68.35-68.99"/><path class="cls-1" d="m603.26,528.45c0-.3-26.6-7.99-49.45-7.99-26.49,0-39.78,8.88-39.78,21.5,0,15.96,19.96,21.53,30.83,24.97l18.5,5.81c42.88,13.67,62.57,43.1,62.57,75.07,0,65.89-60.32,88.05-110.88,88.05-35.15,0-62.22-6.48-73.78-7.17v-60.38c11.56,1.47,36.05,9.75,64.93,9.75,32.86,0,49.26-9.63,49.26-24.49,0-13.28-12.44-20.98-28.84-26.13-4-1.33-9.7-3.22-13.77-4.57-36.82-11.65-67.34-33.31-67.34-76.76,0-49.06,34.55-82.02,95.46-82.02,32.17,0,62.3,7.82,62.3,8.35v56.01Z"/><path class="cls-1" d="m129.11,1181.27h-25.49l-11.56-32.1h-56.49l-11.55,32.1H0l51.35-132.04h26.4l51.35,132.04Zm-64.92-110.77l-22.38,61.43h44.2l-21.82-61.43Z"/><path class="cls-1" d="m164.06,1181.27h-22.01v-95.36h16.69l3.11,10.82c6.73-9.05,16.2-13.57,28.43-13.57,13.33,0,22.8,4.77,28.43,14.31,6.84-9.54,17.24-14.31,31.17-14.31,11.01,0,19.45,3.24,25.31,9.72,5.38,5.99,8.07,14.43,8.07,25.31v63.09h-22v-62.53c0-12.35-5.75-18.53-17.24-18.53-6.61,0-11.87,2.57-15.77,7.71-3.06,4.28-4.59,9.35-4.59,15.21v58.14h-22.01v-62.53c0-12.35-5.74-18.53-17.23-18.53-6.24,0-11.31,2.45-15.22,7.34-3.43,4.16-5.14,9.05-5.14,14.67v59.05Z"/><path class="cls-1" d="m320.95,1154.13c1.72,9.16,8.62,13.75,20.73,13.75,6.72,0,11.79-1.28,15.22-3.86,2.81-2.2,4.21-5.07,4.21-8.62,0-4.52-2.44-7.89-7.33-10.09-2.82-1.23-8.98-2.94-18.52-5.14-11.74-2.69-20.12-6.35-25.13-11.01-5.01-4.52-7.51-10.44-7.51-17.79,0-9.28,3.79-16.44,11.37-21.45,6.72-4.52,15.96-6.79,27.69-6.79s21.82,2.87,29.15,8.62c6.36,4.89,10.33,11.5,11.92,19.81h-22.38c-1.83-8.19-8.19-12.29-19.07-12.29s-16.51,3.37-16.51,10.09c0,3.43,1.4,5.99,4.21,7.7,2.82,1.72,8.5,3.61,17.06,5.69,13.21,3.05,22.38,6.48,27.51,10.27,6.49,4.77,9.72,11.49,9.72,20.17,0,9.91-4.03,17.67-12.1,23.29-7.33,5.01-17.24,7.52-29.71,7.52-13.08,0-23.54-3.12-31.36-9.35-6.6-5.26-10.44-12.11-11.55-20.54h22.37Z"/><path class="cls-1" d="m450.14,1165.13v16.68c-5.14,1.47-10.03,2.21-14.68,2.21-9.42,0-16.56-2.81-21.45-8.44-4.16-4.77-6.24-11.19-6.24-19.26v-53.55h-14.3v-16.87h14.3l1.47-22.92h20.54v22.92h20.17v16.87h-20.17v54.28c0,6.35,3.24,9.54,9.72,9.54,2.82,0,6.36-.49,10.64-1.47Z"/><path class="cls-1" d="m528.21,1153.77h23.11c-2.57,9.77-7.89,17.36-15.96,22.74-7.7,5.01-17.18,7.52-28.43,7.52-15.52,0-27.63-4.89-36.31-14.68-7.95-8.92-11.92-20.84-11.92-35.76,0-17.11,4.96-30.19,14.86-39.24,8.31-7.46,19.13-11.19,32.46-11.19,15.52,0,27.26,5.07,35.22,15.22,7.46,9.42,11.18,22.87,11.18,40.34h-71.34c.86,10.27,4.03,17.79,9.54,22.56,4.4,3.92,10.14,5.87,17.24,5.87,5.01,0,9.35-1.23,13.02-3.67,3.67-2.45,6.11-5.68,7.33-9.72Zm1.65-30.08c-.49-8.93-3.18-15.47-8.07-19.63-4.03-3.54-9.29-5.32-15.77-5.32-7.09,0-12.78,2.32-17.05,6.97-3.92,4.16-6.42,10.15-7.52,17.98h48.41Z"/><path class="cls-1" d="m626.35,1084.44v21.27c-4.03-1.22-7.88-1.83-11.55-1.83-6.85,0-12.36,3-16.51,8.98-3.91,5.75-5.86,13.7-5.86,23.84v44.57h-22.01v-95.36h18.15l2.75,14.3c5.38-11.37,13.51-17.05,24.39-17.05,3.91,0,7.46.43,10.63,1.28Z"/><path class="cls-1" d="m729.12,1181.27h-17.61l-3.85-12.29c-7.47,10.03-17.67,15.04-30.63,15.04s-24.27-4.89-32.1-14.68c-7.1-8.92-10.64-20.6-10.64-35.03,0-17.35,4.59-30.63,13.76-39.8,7.58-7.58,17.42-11.37,29.52-11.37s22.43,4.52,29.52,13.57v-47.5h22.01v132.04Zm-72.26-46.76c0,11.25,2.7,19.63,8.07,25.12,4.4,4.65,10.15,6.98,17.24,6.98,8.68,0,15.29-3.19,19.81-9.54,4.03-5.63,6.05-13.21,6.05-22.75,0-11.98-2.82-20.91-8.44-26.77-4.4-4.65-10.21-6.98-17.43-6.98-8.44,0-14.86,3.19-19.26,9.54-4.03,5.75-6.05,13.88-6.05,24.39Z"/><path class="cls-1" d="m772.08,1112.87h-22.92c1.58-9.91,6.54-17.49,14.86-22.75,7.46-4.64,16.81-6.97,28.06-6.97,13.56,0,23.96,3.49,31.17,10.45,6.24,5.99,9.35,13.75,9.35,23.29v64.37h-17.6l-2.75-11.74c-7.47,9.66-18.04,14.49-31.73,14.49-10.89,0-19.32-2.93-25.31-8.8-5.26-5.14-7.89-11.68-7.89-19.63,0-8.92,3.24-15.89,9.72-20.91,5.87-4.65,14.98-8,27.33-10.09l26.23-4.4v-4.58c0-5.75-1.9-10.03-5.68-12.84-3.31-2.57-7.83-3.86-13.57-3.86-11.38,0-17.79,4.65-19.26,13.94Zm38.51,21.82l-20.73,3.67c-7.09,1.35-12.17,3.21-15.22,5.6-3.05,2.38-4.58,5.71-4.58,9.99,0,8.93,5.44,13.39,16.32,13.39,7.1,0,13.08-2.32,17.98-6.97,4.16-4.03,6.24-8.74,6.24-14.12v-11.56Z"/><path class="cls-1" d="m876.75,1181.27h-22.01v-95.36h16.69l3.11,10.82c6.73-9.05,16.2-13.57,28.43-13.57,13.33,0,22.8,4.77,28.43,14.31,6.84-9.54,17.24-14.31,31.17-14.31,11.01,0,19.45,3.24,25.31,9.72,5.38,5.99,8.07,14.43,8.07,25.31v63.09h-22v-62.53c0-12.35-5.75-18.53-17.24-18.53-6.61,0-11.87,2.57-15.77,7.71-3.06,4.28-4.59,9.35-4.59,15.21v58.14h-22.01v-62.53c0-12.35-5.74-18.53-17.23-18.53-6.24,0-11.31,2.45-15.22,7.34-3.43,4.16-5.14,9.05-5.14,14.67v59.05Z"/><path class="cls-1" d="m1081.41,1037.31h19.44v169.64h-19.44v-169.64Z"/><path class="cls-1" d="m1264.07,1108.64v17.8h-52.45v54.83h-23.48v-132.04h81.98v18.33h-58.5v41.08h52.45Z"/><path class="cls-1" d="m1350.59,1153.77h23.11c-2.57,9.77-7.89,17.36-15.96,22.74-7.7,5.01-17.18,7.52-28.43,7.52-15.52,0-27.63-4.89-36.31-14.68-7.95-8.92-11.92-20.84-11.92-35.76,0-17.11,4.96-30.19,14.86-39.24,8.31-7.46,19.13-11.19,32.46-11.19,15.52,0,27.26,5.07,35.22,15.22,7.46,9.42,11.18,22.87,11.18,40.34h-71.34c.86,10.27,4.03,17.79,9.54,22.56,4.4,3.92,10.14,5.87,17.24,5.87,5.01,0,9.35-1.23,13.02-3.67,3.67-2.45,6.11-5.68,7.33-9.72Zm1.65-30.08c-.49-8.93-3.18-15.47-8.07-19.63-4.03-3.54-9.29-5.32-15.77-5.32-7.09,0-12.78,2.32-17.05,6.97-3.92,4.16-6.42,10.15-7.52,17.98h48.41Z"/><path class="cls-1" d="m1392.81,1049.23h22.01v48.23c7.58-9.54,17.79-14.31,30.63-14.31,13.82,0,24.45,4.71,31.91,14.12,6.85,8.56,10.27,20.06,10.27,34.48,0,17.61-4.71,31.12-14.12,40.53-7.7,7.82-17.67,11.74-29.9,11.74s-22.49-4.77-29.7-14.31l-3.49,11.56h-17.61v-132.04Zm72.26,83.44c0-11.49-2.63-19.99-7.89-25.49-4.28-4.4-10.02-6.61-17.24-6.61-8.19,0-14.67,3-19.44,8.99-4.4,5.75-6.6,13.39-6.6,22.92,0,11.98,2.69,20.91,8.07,26.77,4.52,4.89,10.39,7.34,17.6,7.34,8.44,0,14.86-3.12,19.26-9.36,4.16-5.86,6.24-14.05,6.24-24.57Z"/><path class="cls-1" d="m1562.03,1084.44v21.27c-4.03-1.22-7.88-1.83-11.55-1.83-6.85,0-12.36,3-16.51,8.98-3.91,5.75-5.86,13.7-5.86,23.84v44.57h-22.01v-95.36h18.15l2.75,14.3c5.38-11.37,13.51-17.05,24.39-17.05,3.91,0,7.46.43,10.63,1.28Z"/><path class="cls-1" d="m1574.31,1085.91h22.01v62.72c0,12.23,5.99,18.33,17.97,18.33,6.98,0,12.41-2.5,16.33-7.51,3.18-4.28,4.77-9.54,4.77-15.77v-57.77h22v95.36h-18.15l-2.38-10.63c-6.84,8.93-16.38,13.39-28.61,13.39-11.25,0-19.87-3.42-25.86-10.27-5.38-6.23-8.07-14.79-8.07-25.68v-62.17Z"/><path class="cls-1" d="m1700.35,1112.87h-22.92c1.58-9.91,6.54-17.49,14.86-22.75,7.46-4.64,16.81-6.97,28.06-6.97,13.56,0,23.96,3.49,31.17,10.45,6.24,5.99,9.35,13.75,9.35,23.29v64.37h-17.6l-2.75-11.74c-7.47,9.66-18.04,14.49-31.73,14.49-10.89,0-19.32-2.93-25.31-8.8-5.26-5.14-7.89-11.68-7.89-19.63,0-8.92,3.24-15.89,9.72-20.91,5.87-4.65,14.98-8,27.33-10.09l26.23-4.4v-4.58c0-5.75-1.9-10.03-5.68-12.84-3.31-2.57-7.83-3.86-13.57-3.86-11.38,0-17.79,4.65-19.26,13.94Zm38.51,21.82l-20.73,3.67c-7.09,1.35-12.17,3.21-15.22,5.6-3.05,2.38-4.58,5.71-4.58,9.99,0,8.93,5.44,13.39,16.32,13.39,7.1,0,13.08-2.32,17.98-6.97,4.16-4.03,6.24-8.74,6.24-14.12v-11.56Z"/><path class="cls-1" d="m1838.94,1084.44v21.27c-4.03-1.22-7.88-1.83-11.55-1.83-6.85,0-12.36,3-16.51,8.98-3.91,5.75-5.86,13.7-5.86,23.84v44.57h-22.01v-95.36h18.15l2.75,14.3c5.38-11.37,13.51-17.05,24.39-17.05,3.91,0,7.46.43,10.63,1.28Z"/><path class="cls-1" d="m1942.13,1085.91l-33.56,97.01c-4.4,12.84-9.05,21.7-13.94,26.59-4.89,5.01-11.25,7.52-19.07,7.52-3.92,0-8.26-.61-13.03-1.84v-16.51c3.79.98,7.21,1.47,10.27,1.47,3.91,0,7.03-1.72,9.35-5.14,1.72-2.56,3.67-7.15,5.87-13.75h-6.79l-34.66-95.36h23.65l24.58,78.49,25.31-78.49h22Z"/><path class="cls-1" d="m2031.82,1155.23c2.2,8.31,8.13,12.47,17.79,12.47,7.82,0,13.82-3.6,17.98-10.82,4.28-7.21,6.9-18.46,7.88-33.75-3.18,4.77-7.31,8.5-12.38,11.19-5.07,2.7-10.55,4.03-16.41,4.03-13.57,0-23.97-4.46-31.18-13.39-6.35-7.82-9.53-17.98-9.53-30.45,0-14.42,5.01-25.79,15.03-34.11,8.19-6.84,18.15-10.27,29.89-10.27,16.14,0,28.18,5.75,36.13,17.24,7.09,10.39,10.64,25.37,10.64,44.93,0,47.8-16.15,71.7-48.42,71.7-11.37,0-20.84-2.93-28.43-8.8-6.6-5.14-10.94-11.8-13.02-19.99h24.03Zm42.18-60.52c0-8.8-2.26-15.77-6.79-20.91-4.03-4.52-9.42-6.79-16.14-6.79-7.47,0-13.27,2.75-17.43,8.25-3.67,4.77-5.5,10.89-5.5,18.34,0,9.54,2.38,16.75,7.14,21.64,3.91,4.16,9.12,6.23,15.59,6.23,7.95,0,14-2.99,18.15-8.98,3.31-4.65,4.96-10.58,4.96-17.79Z"/><path class="cls-1" d="m2188.17,1131.21h-67.49v-18.34h67.49v18.34Z"/><path class="cls-1" d="m2256.23,1181.27h-21.82v-106.73l-29.16,14.86v-21.27l29.34-15.22h21.64v128.37Z"/><path class="cls-1" d="m2340.54,1052.9h22.56v86.74h18.34v17.43h-18.34v24.21h-21.09v-24.21h-55.93v-19.45l54.46-84.72Zm-32.1,86.74h33.57v-54.28l-33.57,54.28Z"/><path class="cls-1" d="m2427.11,1157.07v20.35c0,11.49-3.54,20.24-10.63,26.23-4.89,4.15-10.94,6.65-18.15,7.51v-11.18c8.56-1.84,12.84-8.08,12.84-18.71h-9.72v-24.21h25.67Z"/><path class="cls-1" d="m2525.04,1087.19h-23.1c1.58-11.86,7.27-21.21,17.05-28.06,8.31-5.99,18.22-8.98,29.71-8.98,13.45,0,24.14,3.73,32.1,11.19,7.21,6.72,10.82,15.22,10.82,25.49,0,9.29-2.75,17.85-8.26,25.68-4.16,5.99-12.17,14.67-24.03,26.04l-24.75,23.66h56.3v19.07h-85.65v-19.07l37.41-36.32c10.88-10.39,18-18.09,21.36-23.1,3.37-5.01,5.05-10.33,5.05-15.96,0-6.23-2.08-11.12-6.24-14.67-3.79-3.05-8.68-4.59-14.67-4.59-6.61,0-11.99,1.9-16.15,5.68-3.79,3.55-6.11,8.2-6.97,13.94Z"/><path class="cls-1" d="m2654.61,1184.02c-15.52,0-27.38-6.17-35.57-18.52-7.7-11.49-11.56-27.63-11.56-48.42,0-24.21,4.95-41.99,14.86-53.36,7.95-9.05,18.71-13.57,32.27-13.57,15.52,0,27.33,5.93,35.39,17.79,7.7,11.5,11.56,27.88,11.56,49.15,0,23.73-4.95,41.33-14.86,52.82-8.07,9.42-18.77,14.12-32.1,14.12Zm0-16.51c8.8,0,15.16-4.4,19.08-13.21,3.54-8.19,5.32-20.6,5.32-37.23,0-18.95-2.33-32.4-6.97-40.34-4.03-6.72-9.85-10.09-17.43-10.09-8.8,0-15.16,4.4-19.07,13.21-3.67,8.19-5.5,20.61-5.5,37.22,0,18.96,2.32,32.41,6.97,40.35,4.04,6.72,9.91,10.09,17.61,10.09Z"/><path class="cls-1" d="m2739.7,1087.19h-23.1c1.58-11.86,7.27-21.21,17.05-28.06,8.31-5.99,18.22-8.98,29.71-8.98,13.45,0,24.14,3.73,32.1,11.19,7.21,6.72,10.82,15.22,10.82,25.49,0,9.29-2.75,17.85-8.26,25.68-4.16,5.99-12.17,14.67-24.03,26.04l-24.75,23.66h56.3v19.07h-85.65v-19.07l37.41-36.32c10.88-10.39,18-18.09,21.36-23.1,3.37-5.01,5.05-10.33,5.05-15.96,0-6.23-2.08-11.12-6.24-14.67-3.79-3.05-8.68-4.59-14.67-4.59-6.61,0-11.99,1.9-16.15,5.68-3.79,3.55-6.11,8.2-6.97,13.94Z"/><path class="cls-1" d="m2822.03,1149.36h22.38c1.22,5.74,4.03,10.14,8.44,13.2,4.03,2.82,8.98,4.22,14.86,4.22,7.7,0,13.75-2.69,18.15-8.07,4.16-5.01,6.24-11.61,6.24-19.8,0-9.42-2.51-16.51-7.52-21.27-4.16-3.91-9.78-5.87-16.87-5.87-8.93,0-16.33,3.37-22.19,10.09h-18.52l3.11-68.95h77.94v17.05h-58.13l-1.65,34.11c7.33-5.38,15.83-8.07,25.49-8.07,12.72,0,22.86,4.16,30.45,12.47,7.09,7.7,10.63,17.85,10.63,30.45,0,14.05-4.89,25.31-14.67,33.75-8.69,7.58-19.63,11.37-32.83,11.37s-24.03-3.73-32.46-11.19c-7.09-6.23-11.37-14.05-12.84-23.47Z"/></svg>